<?xml version="1.0" encoding="utf-8"?>
<!-- Generator: Adobe Illustrator 23.0.0, SVG Export Plug-In . SVG Version: 6.00 Build 0)  -->
<svg version="1.1" id="图层_1" xmlns="http://www.w3.org/2000/svg" xmlns:xlink="http://www.w3.org/1999/xlink" x="0px" y="0px"
	 viewBox="0 0 175 153.5" style="enable-background:new 0 0 175 153.5;" xml:space="preserve">
<style type="text/css">
	.st0{fill:#1AD287;}
</style>
<path class="st0" d="M167,28.2L65.6,19.5c-4.4,0-9.3,3.6-7.9,7.9l16.4,61c1.9,5.5,6.1,5.6,10.5,5.6h76.5c4.4,0,7.9-3.6,7.9-7.9
	l6-48.8C175,32.8,172.6,28.6,167,28.2z M151.8,103.1c0,0,13.5,7.1-0.6,16.9H55.7L26.4,19.2L4.3,18.7c0,0-10.6-11.4,1.3-17.4L38.7,4
	l27.1,99.2L151.8,103.1L151.8,103.1z M75.2,125.7c-7.7,0-13.9,6.2-13.9,13.9c0,7.7,6.2,13.9,13.9,13.9c7.7,0,13.9-6.2,13.9-13.9
	C89.1,131.9,82.9,125.7,75.2,125.7z M138.1,126c-7.6,0-13.8,6.2-13.8,13.8c0,7.6,6.2,13.8,13.8,13.8c7.6,0,13.8-6.2,13.8-13.8
	C151.9,132.1,145.7,126,138.1,126z"/>
</svg>
