<?xml version="1.0" encoding="utf-8"?>
<!-- Generator: Adobe Illustrator 23.0.0, SVG Export Plug-In . SVG Version: 6.00 Build 0)  -->
<svg version="1.1" id="图层_1" xmlns="http://www.w3.org/2000/svg" xmlns:xlink="http://www.w3.org/1999/xlink" x="0px" y="0px"
	 viewBox="0 0 177.8 177.8" style="enable-background:new 0 0 177.8 177.8;" xml:space="preserve">
<style type="text/css">
	.st0{fill:#FF9800;}
</style>
<path class="st0" d="M155.6,177.8H22.2L0,100l11.1-77.8h22.2L22.2,100h33.3l11.1,22.2h44.4l11.1-22.2h33.3l-11.1-77.8h22.2
	l11.1,77.8L155.6,177.8z M113.3,40.4l-13,11.9V10.6C99.8,4.2,94.1-0.5,87.7,0c-5.6,0.5-10.1,5-10.6,10.6v41.7l-13-11.9
	c-4.7-4.2-11.7-4.2-16.4,0c-4.2,3.6-4.6,9.9-1,14.1c0.3,0.3,0.6,0.7,1,1l32.8,30.1c4.7,4.2,11.7,4.2,16.4,0l32.8-30.1
	c4.2-3.6,4.6-9.9,1-14.1c-0.3-0.3-0.6-0.7-1-1C125.1,36.2,118,36.2,113.3,40.4L113.3,40.4z"/>
</svg>
