<?xml version="1.0" standalone="no"?><!DOCTYPE svg PUBLIC "-//W3C//DTD SVG 1.1//EN" "http://www.w3.org/Graphics/SVG/1.1/DTD/svg11.dtd"><svg t="1623084787207" class="icon" viewBox="0 0 1024 1024" version="1.1" xmlns="http://www.w3.org/2000/svg" p-id="1188" xmlns:xlink="http://www.w3.org/1999/xlink" width="200" height="200"><defs><style type="text/css">.s_0{fill:#f94f87ab;}</style></defs><path class="s_0" d="M157.969067 341.742933A408.849067 408.849067 0 0 0 512 954.9824c225.792 0 408.814933-183.057067 408.814933-408.814933 0-225.792-183.022933-408.849067-408.814933-408.849067-146.090667 0-281.053867 77.9264-354.065067 204.424533z m615.6288 209.5104v0.7168l-0.068267 0.341334-0.034133 0.443733-0.068267 0.6144-0.034133 0.1024a20.957867 20.957867 0 0 1-5.461334 10.990933c-5.393067 6.621867-11.4688 12.8-17.442133 18.978134-32.6656 33.109333-70.075733 62.6688-111.0016 84.0704-26.2144 13.824-54.1696 24.6784-83.2512 30.1056a244.292267 244.292267 0 0 1-95.505067-1.3312c-54.954667-11.946667-104.618667-41.642667-148.206933-77.038934a419.054933 419.054933 0 0 1-56.7296-54.749866 20.957867 20.957867 0 0 1 0-28.2624c5.5296-6.656 11.605333-12.868267 17.544533-19.012267 32.631467-33.109333 69.973333-62.600533 110.967467-84.0704 26.248533-13.789867 54.203733-24.8832 83.1488-30.139733a242.5856 242.5856 0 0 1 95.573333 1.3312c54.8864 11.946667 104.6528 41.608533 148.206934 77.073066 20.138667 16.384 40.004267 34.440533 56.661333 54.6816 2.935467 3.072 4.8128 6.894933 5.461333 11.025067v0.034133l0.068267 0.6144 0.068267 0.477867v0.341333a2.730667 2.730667 0 0 1 0.034133 0.682667l0.068267 1.024a3.072 3.072 0 0 1 0 0.955733zM512 448.068267a98.133333 98.133333 0 1 0 0 196.266666 98.133333 98.133333 0 0 0 0-196.266666z m0 147.114666a49.117867 49.117867 0 1 1 0-98.2016 49.117867 49.117867 0 0 1 0 98.235734z" p-id="1189"></path></svg>